<svg width="36" height="36" viewBox="0 0 36 36" fill="none" xmlns="http://www.w3.org/2000/svg">
<rect width="36" height="36" rx="8" fill="#A9DD96"/>
<path d="M23.3531 11.0003C22.3336 11.0026 21.3269 11.2266 20.4026 11.6565C19.4783 12.0865 18.6585 12.7124 18.0002 13.4906C16.9854 12.2859 15.594 11.4587 14.0509 11.1426C12.5079 10.8265 10.9032 11.0401 9.49665 11.7488C8.08999 12.4576 6.96349 13.62 6.29932 15.0483C5.6351 16.4764 5.472 18.0868 5.83633 19.6192C6.20064 21.1516 7.07114 22.5163 8.30711 23.4926C9.54303 24.469 11.0721 25.0001 12.6473 24.9999C13.6667 24.9975 14.6734 24.7735 15.5976 24.3435C16.5219 23.9135 17.3416 23.2877 18.0002 22.5096C18.6586 23.2879 19.4784 23.9136 20.4026 24.3437C21.3269 24.7737 22.3336 24.9976 23.3531 24.9999C25.2096 24.9999 26.99 24.2624 28.3029 22.9497C29.6156 21.6369 30.3531 19.8564 30.3531 17.9999C30.3531 16.1435 29.6156 14.3631 28.3029 13.0502C26.9901 11.7375 25.2095 11 23.3531 11L23.3531 11.0003ZM29.5188 17.7873L28.706 18.3296L27.8714 17.7733C27.8184 16.7401 27.4135 15.7561 26.7237 14.9851C26.034 14.2141 25.1011 13.7023 24.0802 13.5351L24.5196 12.8762C24.5647 12.8085 24.5888 12.7291 24.5888 12.6477C24.5888 12.5664 24.5647 12.4868 24.5196 12.4192L24.1622 11.8839C25.6085 12.0766 26.9397 12.7751 27.9203 13.8558C28.9008 14.9363 29.4671 16.329 29.5188 17.7872L29.5188 17.7873ZM23.3531 21.706C22.3702 21.706 21.4276 21.3156 20.7326 20.6205C20.0376 19.9256 19.6471 18.983 19.6471 18.0001C19.6471 17.0172 20.0376 16.0747 20.7326 15.3797C21.4275 14.6847 22.3702 14.2942 23.3531 14.2942C24.336 14.2942 25.2785 14.6847 25.9735 15.3797C26.6685 16.0746 27.059 17.0172 27.059 18.0001C27.0579 18.9826 26.6671 19.9246 25.9724 20.6193C25.2776 21.314 24.3357 21.7048 23.3532 21.7059L23.3531 21.706ZM23.141 11.8366L23.6825 12.6473L23.1258 13.4823C22.0928 13.5354 21.109 13.9405 20.3382 14.6302C19.5672 15.3199 19.0556 16.2526 18.8884 17.2735L18.2296 16.8341C18.1619 16.789 18.0824 16.7649 18.001 16.7649C17.9197 16.7649 17.8402 16.789 17.7725 16.8341L17.229 17.1965H17.2289C17.3588 16.1857 17.739 15.2233 18.335 14.3965C18.8887 13.6325 19.6094 13.0048 20.4422 12.5612C21.275 12.1176 22.198 11.8698 23.1411 11.8367L23.141 11.8366ZM17.49 14.1799C17.1359 14.7196 16.8586 15.3061 16.6664 15.9224C16.3025 15.2199 15.7609 14.625 15.0955 14.1969C14.4302 13.7688 13.6643 13.5224 12.8741 13.4823L12.3178 12.6473L12.8585 11.8366C13.754 11.869 14.6318 12.0954 15.4314 12.5C16.2309 12.9045 16.9333 13.4776 17.4899 14.1799L17.49 14.1799ZM12.6472 21.706C11.6644 21.706 10.7218 21.3156 10.0268 20.6205C9.33176 19.9256 8.94131 18.983 8.94131 18.0001C8.94131 17.0172 9.33176 16.0747 10.0268 15.3797C10.7217 14.6847 11.6643 14.2942 12.6472 14.2942C13.6301 14.2942 14.5727 14.6847 15.2677 15.3797C15.9627 16.0746 16.3531 17.0172 16.3531 18.0001C16.352 18.9826 15.9613 19.9246 15.2666 20.6193C14.5718 21.314 13.6298 21.7048 12.6474 21.7059L12.6472 21.706ZM11.8385 11.8831L11.4811 12.4184C11.436 12.4861 11.4119 12.5655 11.4119 12.6469C11.4119 12.7282 11.436 12.8078 11.4811 12.8754L11.9205 13.5342C10.8996 13.7015 9.9667 14.2132 9.27695 14.9843C8.58717 15.7554 8.18224 16.7394 8.12933 17.7726L7.2943 18.3296L6.48148 17.7874C6.53303 16.329 7.09929 14.9359 8.07988 13.8553C9.06039 12.7745 10.3919 12.0758 11.8384 11.8832L11.8385 11.8831ZM6.53007 18.8093L7.06536 19.1667C7.13307 19.2118 7.21253 19.2359 7.29393 19.2359C7.37523 19.2359 7.45477 19.2118 7.52241 19.1667L8.18123 18.7273C8.34859 19.748 8.86023 20.6807 9.63117 21.3704C10.402 22.06 11.3858 22.465 12.4186 22.5181L12.9766 23.3531L12.4347 24.1659C10.9763 24.1145 9.58324 23.5484 8.50237 22.5679C7.42157 21.5874 6.72285 20.2559 6.53001 18.8093L6.53007 18.8093ZM13.4547 24.121L13.8134 23.5832C13.8585 23.5156 13.8826 23.436 13.8826 23.3546C13.8826 23.2733 13.8585 23.1938 13.8134 23.1261L13.374 22.4673C14.3948 22.3001 15.3276 21.7885 16.0173 21.0176C16.7071 20.2466 17.1121 19.2629 17.1652 18.23L18.0002 17.6708L18.8155 18.2143C18.7782 19.4335 18.378 20.6138 17.6663 21.6043C17.1717 22.2874 16.5432 22.8626 15.8192 23.295C15.0952 23.7273 14.2907 24.0078 13.4548 24.1193L13.4547 24.121ZM18.5103 21.8225H18.5104C18.8645 21.2826 19.1416 20.696 19.3339 20.0796C19.6591 20.7066 20.1263 21.249 20.6982 21.6636C21.2701 22.0782 21.9309 22.3536 22.628 22.4678L22.1886 23.1266C22.1434 23.1942 22.1194 23.2737 22.1194 23.3551C22.1194 23.4364 22.1434 23.516 22.1886 23.5836L22.5468 24.1189C20.9547 23.904 19.5078 23.0804 18.5103 21.8209L18.5103 21.8225ZM23.5655 24.1675L23.0237 23.3531L23.5804 22.518C24.6135 22.4652 25.5973 22.0603 26.3684 21.3707C27.1394 20.6812 27.6512 19.7485 27.8187 18.7276L28.4775 19.1666C28.5452 19.2117 28.6247 19.2358 28.7061 19.2358C28.7874 19.2358 28.8669 19.2117 28.9346 19.1666L29.4699 18.8092C29.2771 20.2556 28.5784 21.5871 27.4977 22.5675C26.4169 23.548 25.0238 24.1142 23.5656 24.1658L23.5655 24.1675Z" fill="#00576F"/>
</svg>
